<svg xmlns="http://www.w3.org/2000/svg" viewBox="0 0 24 24"><g id="Foreground"><path d="M4.15,13.93a4,4,0,0,0,0,.68.83.83,0,0,0,.16.38.84.84,0,0,0,.35.24,2.41,2.41,0,0,0,.57.13c.24,0,.56.05,1,.06V16H.67v-.58c.47,0,.82-.05,1-.08a2.08,2.08,0,0,0,.53-.14A1,1,0,0,0,2.54,15a.81.81,0,0,0,.15-.35,3,3,0,0,0,.05-.7V10a.81.81,0,0,0-.1-.46.36.36,0,0,0-.32-.15,1.63,1.63,0,0,0-.68.25c-.29.16-.65.38-1.06.66L.23,9.72l3.5-2.14h.46c0,.52,0,1.22,0,2.11Z"/><path d="M14.81,4.67,9.09,19.4H7.85L13.58,4.67Z"/><path d="M19.08,12.42c-.07-.42-.16-.82-.24-1.2s-.17-.75-.26-1.08a4.11,4.11,0,0,0-.22-.65.53.53,0,0,0-.19-.22.49.49,0,0,0-.25-.06.61.61,0,0,0-.3.08,1.11,1.11,0,0,0-.29.26,6.05,6.05,0,0,0-.42.58l-.52-.34a5.15,5.15,0,0,1,1-1.12,1.67,1.67,0,0,1,1.09-.37,1.45,1.45,0,0,1,.43,0,1.29,1.29,0,0,1,.33.17,1.53,1.53,0,0,1,.25.3,3,3,0,0,1,.21.49,6.22,6.22,0,0,1,.2.78c.06.31.11.63.16,1h.08c.5-.71.89-1.23,1.15-1.56a6,6,0,0,1,.66-.74,1.85,1.85,0,0,1,.52-.34,2,2,0,0,1,.66-.1,1.53,1.53,0,0,1,.61.1l-.32,1.43h-.55c0-.22-.12-.33-.28-.33l-.15,0a.88.88,0,0,0-.19.1,3.53,3.53,0,0,0-.34.31c-.15.16-.31.34-.5.57l-.57.69-.54.67q.15.77.27,1.32c.09.37.16.68.23.92s.12.44.17.58a.94.94,0,0,0,.17.32.34.34,0,0,0,.17.15.46.46,0,0,0,.21.05A.67.67,0,0,0,21.9,15a3.73,3.73,0,0,0,.58-.75l.52.34a4.74,4.74,0,0,1-1,1.16,1.72,1.72,0,0,1-1.06.34,1.16,1.16,0,0,1-.58-.13,1.08,1.08,0,0,1-.41-.39,2.7,2.7,0,0,1-.31-.84,13.78,13.78,0,0,1-.3-1.55h-.08c-.56.79-1,1.35-1.25,1.69a5.77,5.77,0,0,1-.67.76,1.79,1.79,0,0,1-.51.35,1.76,1.76,0,0,1-.66.1,1.49,1.49,0,0,1-.61-.1l.31-1.43h.56q0,.33.27.33a.53.53,0,0,0,.24-.06,1.53,1.53,0,0,0,.35-.28c.15-.15.36-.39.63-.71S18.57,13.06,19.08,12.42Z"/><text/></g></svg>