<svg xmlns="http://www.w3.org/2000/svg" viewBox="0 0 24 24"><g id="Foreground"><path d="M18.74,12c0,1.84-.93,3.36-2.59,3.36s-2.58-1.54-2.58-3.27.87-3.37,2.59-3.37S18.74,10.36,18.74,12Z"/><path d="M20.31,4H3.69A3.69,3.69,0,0,0,0,7.69v8.62A3.69,3.69,0,0,0,3.69,20H20.31A3.69,3.69,0,0,0,24,16.31V7.69A3.69,3.69,0,0,0,20.31,4ZM5.2,16h-1V8h1Zm3.48.12a4.32,4.32,0,0,1-2.07-.51l.27-.88a3.68,3.68,0,0,0,1.87.53c1.07,0,1.69-.57,1.69-1.38S10,12.73,8.92,12.31C7.6,11.84,6.78,11.16,6.78,10A2.33,2.33,0,0,1,9.4,7.83a3.72,3.72,0,0,1,1.78.39l-.28.85a3.33,3.33,0,0,0-1.54-.38c-1.1,0-1.52.66-1.52,1.21,0,.76.49,1.13,1.6,1.56,1.37.53,2.07,1.19,2.07,2.37S10.58,16.16,8.68,16.16Zm7.41,0c-2.13,0-3.63-1.65-3.63-4.1s1.59-4.24,3.75-4.24,3.64,1.69,3.64,4.09C19.85,14.7,18.15,16.17,16.09,16.17Z"/></g></svg>