<svg xmlns="http://www.w3.org/2000/svg" viewBox="0 0 24 24"><g id="Foreground"><path d="M3.81,12.51c-.07-.41-.16-.81-.24-1.19s-.17-.73-.25-1.06a4.27,4.27,0,0,0-.22-.64.56.56,0,0,0-.19-.21.43.43,0,0,0-.24-.06.61.61,0,0,0-.3.08,1.07,1.07,0,0,0-.28.26,4.7,4.7,0,0,0-.42.57l-.5-.34a4.72,4.72,0,0,1,.94-1.1,1.62,1.62,0,0,1,1.07-.37,1.33,1.33,0,0,1,.42.06.88.88,0,0,1,.32.16,1.05,1.05,0,0,1,.25.3,2.83,2.83,0,0,1,.21.48,6.45,6.45,0,0,1,.19.76c.06.31.11.62.16.95h.08c.5-.7.87-1.21,1.13-1.54a6.45,6.45,0,0,1,.65-.72,1.51,1.51,0,0,1,1.16-.43,1.72,1.72,0,0,1,.6.09L8,10H7.49q0-.33-.27-.33l-.15,0a.7.7,0,0,0-.19.1,3.14,3.14,0,0,0-.33.3c-.14.15-.31.33-.49.55l-.56.69L5,12c.1.5.18.93.27,1.29s.15.66.22.91.12.43.17.57a1,1,0,0,0,.16.31A.57.57,0,0,0,6,15.2a.46.46,0,0,0,.21,0,.63.63,0,0,0,.41-.16,4,4,0,0,0,.57-.74l.51.34a5.49,5.49,0,0,1-1,1.14,1.68,1.68,0,0,1-1,.33A1.2,1.2,0,0,1,5.06,16a1.17,1.17,0,0,1-.41-.39,3,3,0,0,1-.3-.82,14.05,14.05,0,0,1-.3-1.53H4c-.55.77-1,1.33-1.23,1.67a8.33,8.33,0,0,1-.66.74,1.51,1.51,0,0,1-.51.34,1.67,1.67,0,0,1-.65.1A1.42,1.42,0,0,1,.34,16l.31-1.4h.54c0,.21.12.32.27.32a.49.49,0,0,0,.23-.06A1.29,1.29,0,0,0,2,14.62a7.25,7.25,0,0,0,.62-.69C2.93,13.61,3.31,13.14,3.81,12.51Z"/><path d="M15.9,4.89,10.28,19.37H9.06L14.7,4.89Z"/><path d="M21.62,14a3.91,3.91,0,0,0,0,.67.83.83,0,0,0,.16.37.8.8,0,0,0,.34.24,2.45,2.45,0,0,0,.57.12q.35,0,.93.06V16H18.2v-.57a9,9,0,0,0,1-.08,1.82,1.82,0,0,0,.53-.14A.89.89,0,0,0,20,15a.82.82,0,0,0,.15-.34,3.59,3.59,0,0,0,0-.69V10.14a.75.75,0,0,0-.1-.45.35.35,0,0,0-.31-.15,1.51,1.51,0,0,0-.67.24c-.29.16-.64.37-1.05.65l-.34-.58,3.44-2.1h.45c0,.51,0,1.2,0,2.07Z"/></g></svg>