<svg xmlns="http://www.w3.org/2000/svg" viewBox="0 0 24 24"><defs><style>.cls-1{fill:none;stroke:#000;stroke-linecap:round;stroke-miterlimit:10;}</style></defs><g id="Foreground"><circle cx="12" cy="12" r="1"/><path class="cls-1" d="M18,12a6,6,0,0,1-6,6"/><path class="cls-1" d="M6,12a6,6,0,0,1,6-6"/><path class="cls-1" d="M12,20.47A8.47,8.47,0,0,1,3.53,12"/><path class="cls-1" d="M12,3.53A8.47,8.47,0,0,1,20.47,12"/><path class="cls-1" d="M1.17,12A10.82,10.82,0,0,1,12,1.17"/><path class="cls-1" d="M22.83,12A10.82,10.82,0,0,1,12,22.83"/><path class="cls-1" d="M12,15.49A3.49,3.49,0,0,1,8.51,12"/><path class="cls-1" d="M12,8.51A3.49,3.49,0,0,1,15.49,12"/></g></svg>